HIERARCHY
ROOT root
{
	OFFSET 0.000000 0.000000 0.000000
	CHANNELS 6 Xposition Yposition Zposition Zrotation Yrotation Xrotation
	JOINT lhip
	{
		OFFSET 0.058581 -0.082280 -0.017664
		CHANNELS 3 Zrotation Yrotation Xrotation
		JOINT lknee
		{
			OFFSET 0.043451 -0.386469 0.008037
			CHANNELS 3 Zrotation Yrotation Xrotation
			JOINT lankle
			{
				OFFSET -0.014790 -0.426874 -0.037428
				CHANNELS 3 Zrotation Yrotation Xrotation
				JOINT ltoe
				{
					OFFSET 0.041054 -0.060286 0.122042
					CHANNELS 3 Zrotation Yrotation Xrotation
					End Site
					{
						OFFSET 0.000000 0.000000 0.000000
					}
				}
			}
		}
	}
	JOINT rhip
	{
		OFFSET -0.060310 -0.090513 -0.013543
		CHANNELS 3 Zrotation Yrotation Xrotation
		JOINT rknee
		{
			OFFSET -0.043257 -0.383688 -0.004843
			CHANNELS 3 Zrotation Yrotation Xrotation
			JOINT rankle
			{
				OFFSET 0.019056 -0.420046 -0.034562
				CHANNELS 3 Zrotation Yrotation Xrotation
				JOINT rtoe
				{
					OFFSET -0.034840 -0.062106 0.130323
					CHANNELS 3 Zrotation Yrotation Xrotation
					End Site
					{
						OFFSET 0.000000 0.000000 0.000000
					}
				}
			}
		}
	}
	JOINT lowerback
	{
		OFFSET 0.004439 0.124404 -0.038385
		CHANNELS 3 Zrotation Yrotation Xrotation
		JOINT upperback
		{
			OFFSET 0.004488 0.137956 0.026820
			CHANNELS 3 Zrotation Yrotation Xrotation
			JOINT chest
			{
				OFFSET -0.002265 0.056032 0.002855
				CHANNELS 3 Zrotation Yrotation Xrotation
				JOINT lowerneck
				{
					OFFSET -0.013390 0.211636 -0.033468
					CHANNELS 3 Zrotation Yrotation Xrotation
					JOINT upperneck
					{
						OFFSET 0.010113 0.088937 0.050410
						CHANNELS 3 Zrotation Yrotation Xrotation
						End Site
						{
							OFFSET 0.000000 0.000000 0.000000
						}
					}
				}
				JOINT lclavicle
				{
					OFFSET 0.071702 0.114000 -0.018898
					CHANNELS 3 Zrotation Yrotation Xrotation
					JOINT lshoulder
					{
						OFFSET 0.122921 0.045205 -0.019046
						CHANNELS 3 Zrotation Yrotation Xrotation
						JOINT lelbow
						{
							OFFSET 0.255332 -0.015649 -0.022946
							CHANNELS 3 Zrotation Yrotation Xrotation
							JOINT lwrist
							{
								OFFSET 0.265709 0.012698 -0.007375
								CHANNELS 3 Zrotation Yrotation Xrotation
								End Site
								{
									OFFSET 0.000000 0.000000 0.000000
								}
							}
						}
					}
				}
				JOINT rclavicle
				{
					OFFSET -0.082954 0.112472 -0.023707
					CHANNELS 3 Zrotation Yrotation Xrotation
					JOINT rshoulder
					{
						OFFSET -0.113228 0.046853 -0.008472
						CHANNELS 3 Zrotation Yrotation Xrotation
						JOINT relbow
						{
							OFFSET -0.260127 -0.014369 -0.031269
							CHANNELS 3 Zrotation Yrotation Xrotation
							JOINT rwrist
							{
								OFFSET -0.269108 0.006794 -0.006027
								CHANNELS 3 Zrotation Yrotation Xrotation
								End Site
								{
									OFFSET 0.000000 0.000000 0.000000
								}
							}
						}
					}
				}
			}
		}
	}
}
MOTION
Frames: 14
Frame Time: 0.033333
1.052118 0.366556 1.040676 24.403747 -1.858107 87.850861 1.900870 1.134720 -10.987201 -5.300439 -0.819242 17.164717 4.661788 10.745039 -9.821691 0.000000 -0.000000 0.000000 -12.891312 -9.490494 0.396667 -5.067516 -9.947228 33.070416 1.897052 -16.996260 -10.469408 0.000000 -0.000000 0.000000 -0.713452 4.925328 11.603075 1.477004 -1.585977 -5.338878 1.013064 -0.005636 0.026943 4.200760 -2.833479 -4.805845 4.404873 -3.425477 3.927638 -24.254014 5.435617 1.814609 -50.005794 -1.443497 9.372365 -1.106694 -37.538380 16.327105 2.388287 -9.562225 -11.255825 26.110836 -0.811701 0.810057 50.788172 -2.880237 15.150005 -6.370926 34.615760 3.207066 2.258058 3.402083 -0.369201 
1.060173 0.370680 1.043278 21.175989 -1.292680 88.582769 2.210851 2.412634 -10.579327 -4.991578 0.735979 15.581190 4.648491 10.957307 -9.664260 0.000000 -0.000000 0.000000 -12.109932 -10.223120 -0.953142 -3.470951 -10.394288 31.413993 3.516074 -15.056472 -11.617377 0.000000 -0.000000 0.000000 -0.445370 4.465842 11.994856 1.646872 -1.996816 -5.309710 1.090741 -0.033121 -0.157266 4.366546 -3.756077 -5.390003 4.695342 -5.000510 4.158424 -24.097140 5.267841 1.845920 -49.483505 -2.333027 8.917694 -0.380556 -39.656777 13.446490 4.152244 -9.306429 -11.798899 26.014928 -0.704310 0.877913 50.462756 -2.948000 15.121746 -5.808279 35.856516 3.609082 1.437765 3.795739 -0.104794 
1.067163 0.376292 1.044324 18.094781 -1.102075 89.277525 2.099094 2.387038 -10.393059 -4.563299 2.177120 14.244286 4.684875 12.003191 -9.589714 0.000000 -0.000000 0.000000 -11.387311 -10.030722 -1.841461 -2.985995 -11.663902 30.302216 2.790027 -16.178801 -11.467547 0.000000 -0.000000 0.000000 -0.735098 3.766920 12.152801 1.747970 -2.118268 -5.525027 1.187163 -0.317912 0.147739 4.728991 -5.137689 -5.908703 5.087611 -5.790720 4.658421 -23.801400 5.393512 1.926612 -49.117385 -3.171714 8.733369 0.790436 -41.953504 10.404669 6.410451 -9.289490 -13.356056 26.292393 -0.719872 0.667838 49.645445 -2.891192 15.727682 -5.325419 37.387811 4.127159 1.138444 4.257293 0.327035 
1.071672 0.381898 1.045310 14.793363 -0.693250 89.467959 2.532495 3.346678 -9.963831 -4.456727 3.989682 13.401383 4.323898 12.504162 -9.347726 0.000000 -0.000000 0.000000 -10.829635 -10.391582 -2.164432 -3.532680 -11.932263 31.398499 2.980336 -15.555875 -11.487805 0.000000 -0.000000 0.000000 -0.798693 3.660596 12.607930 1.858742 -2.323933 -5.508614 1.342872 -0.589303 0.342380 5.023762 -5.872400 -5.999818 5.573366 -6.244917 4.539719 -23.496030 5.452355 1.700464 -48.877675 -3.773791 8.489668 1.976853 -43.618500 8.037935 8.638400 -9.154696 -14.189579 26.092584 -1.089909 0.060965 49.369249 -2.742008 16.071791 -4.332130 38.816416 4.903702 0.058148 4.704894 0.540478 
1.076323 0.388173 1.045641 12.038547 -0.758750 89.867500 2.418413 3.492035 -10.052793 -4.490583 5.501060 12.788611 4.741645 13.210991 -9.101294 0.000000 -0.000000 0.000000 -11.187405 -10.270367 -2.317941 -3.022679 -12.075150 33.143375 3.329331 -15.061264 -10.343522 0.000000 -0.000000 0.000000 -1.128118 3.331017 12.657609 1.994421 -2.631259 -5.516262 1.416516 -0.538950 0.320076 4.873452 -6.250073 -5.986374 5.867678 -6.572116 4.723992 -23.296987 5.111837 1.935918 -48.714170 -4.304783 8.031332 3.398643 -45.018273 5.869258 9.347555 -8.873204 -15.047165 25.742347 -1.247974 0.013245 49.844142 -3.335043 15.966197 -5.233921 40.756460 4.607928 0.558402 4.539657 -0.081341 
1.078269 0.395421 1.046162 9.331916 -0.675730 90.246008 2.710027 3.662460 -10.716600 -4.505406 6.413380 13.242248 5.045768 13.704334 -8.647754 0.000000 -0.000000 0.000000 -11.341850 -10.185236 -2.103708 -2.830761 -11.345789 34.783912 4.122905 -14.619588 -8.927393 0.000000 -0.000000 0.000000 -1.538864 3.223286 12.435322 2.254642 -2.902178 -5.393614 1.654943 -0.809693 0.400996 4.837209 -6.421500 -6.276547 5.824739 -6.586148 4.714027 -23.587139 5.307952 1.575016 -48.227934 -4.908325 7.713442 4.112253 -45.728010 4.764497 10.418302 -8.389704 -15.051792 25.734846 -1.577849 -0.059728 49.755024 -3.017469 16.080315 -5.290698 41.497148 3.961154 -0.415774 4.605171 -0.223811 
1.078650 0.403608 1.046314 6.450025 -0.456452 90.630812 3.238850 4.005359 -11.381797 -4.524933 7.485875 13.709200 4.813080 14.060157 -8.989432 0.000000 -0.000000 0.000000 -12.413776 -10.327327 -1.444425 -2.284301 -12.094177 35.882963 4.028836 -13.944691 -8.156604 0.000000 -0.000000 0.000000 -1.660900 3.340359 12.476161 2.381729 -2.888519 -5.683179 1.735687 -1.001773 0.452027 4.989420 -5.991083 -6.643961 5.850447 -6.038987 5.132713 -23.423618 5.494837 1.298391 -48.373951 -5.463704 7.491917 4.906829 -46.052499 4.210325 10.431411 -8.456111 -15.170899 25.706666 -2.016093 -0.248748 49.667961 -3.059095 16.312132 -5.146249 42.323912 4.345139 -0.108655 4.374762 -0.790770 
1.077411 0.412169 1.046021 3.503167 -0.306587 90.760516 3.434801 5.357345 -11.889105 -4.042323 8.843642 14.109511 4.354844 14.087245 -9.235135 0.000000 -0.000000 0.000000 -12.561254 -10.680554 0.012721 -4.381911 -9.678584 36.270942 7.701985 -10.818923 -7.979418 0.000000 -0.000000 0.000000 -1.681369 3.707996 12.714531 2.350781 -3.081217 -5.831999 1.813069 -0.995334 0.402571 5.127787 -5.046175 -6.719399 5.950223 -5.755939 4.720266 -23.358087 5.521895 0.985003 -48.473660 -5.857138 7.198885 4.989737 -46.387955 3.661261 11.250948 -8.241947 -15.413707 25.821521 -2.705210 -0.909819 49.994382 -2.914609 16.202825 -5.147389 42.496850 5.124591 0.445226 4.346509 -0.304684 
1.074755 0.423442 1.044387 0.552832 -0.138416 91.539591 3.963117 5.920481 -12.969661 -4.092510 11.161812 13.910337 4.979396 14.746548 -9.012270 0.000000 -0.000000 0.000000 -13.599398 -10.839267 0.788395 -3.810279 -9.847567 35.139086 7.140325 -11.452236 -7.551762 0.000000 -0.000000 0.000000 -1.987282 3.747888 11.935981 2.480308 -3.228012 -5.571382 2.086393 -0.770469 0.384564 5.032347 -4.611350 -7.336428 5.793106 -5.238071 5.312106 -23.824801 5.595174 1.036487 -48.195657 -6.101254 7.004768 5.204925 -46.940978 3.361940 11.514522 -8.398037 -15.005483 26.380745 -2.546325 -0.469479 49.380431 -2.515148 16.197320 -5.063768 42.773643 4.505747 -0.604048 4.628714 -0.038922 
1.070223 0.436236 1.043080 -2.674017 0.434211 92.264311 5.091077 6.780511 -14.056255 -4.100504 13.073646 13.893613 5.365168 15.128031 -8.111904 0.000000 -0.000000 0.000000 -14.117856 -11.432789 0.920370 -3.032694 -11.381504 33.372622 4.006779 -14.237944 -6.680161 0.000000 -0.000000 0.000000 -1.746665 3.677333 11.336856 2.459658 -3.108679 -5.244228 2.246526 -0.695116 0.256946 4.881526 -4.760993 -7.239808 6.111669 -3.515926 4.795938 -24.234945 5.537507 1.368860 -48.214464 -5.976069 6.835433 5.485851 -48.172591 3.307680 12.322124 -7.610090 -15.841161 26.237551 -1.765389 0.315350 49.618680 -1.837361 16.328334 -4.822367 42.587628 4.009441 -1.734189 4.552771 0.264595 
1.062649 0.449773 1.042253 -5.907339 0.728293 92.765608 6.111064 7.996683 -14.982520 -4.020429 14.795014 14.278331 5.469915 15.151750 -7.799795 0.000000 -0.000000 0.000000 -15.038291 -12.510022 1.397973 -2.949105 -11.932437 31.628347 3.066800 -14.130676 -3.965169 0.000000 -0.000000 0.000000 -1.784683 4.371081 11.197394 2.376284 -3.037274 -5.470379 2.187414 -0.902373 0.123954 5.149792 -4.633999 -7.571429 6.615777 -3.487585 5.434398 -23.820601 5.788278 1.517879 -48.611271 -6.012320 6.777878 4.410262 -48.860260 4.960496 12.273107 -7.791305 -15.907389 26.637139 -2.340297 0.438680 50.182642 -1.289879 16.407946 -5.335983 42.544130 3.708195 -1.431805 4.588285 0.853618 
1.056320 0.465144 1.040995 -9.281233 1.241630 93.168447 7.494072 8.663531 -15.974605 -3.739120 16.979926 14.807788 5.539418 15.547800 -6.837853 0.000000 -0.000000 0.000000 -15.822067 -13.598435 1.760570 -2.820225 -13.704547 29.286627 1.677831 -13.843473 -0.794761 0.000000 -0.000000 0.000000 -0.913616 4.733270 11.234328 2.090376 -2.850186 -5.406877 2.050467 -0.790077 -0.479044 4.657145 -5.394447 -7.173938 7.179178 -2.952816 5.576653 -24.203574 5.390778 2.069323 -48.654777 -5.653376 6.840957 3.750910 -49.664408 5.784904 13.157823 -7.499268 -15.916208 26.258210 -1.892252 1.080542 50.886402 -1.488370 15.926884 -5.407345 42.917572 3.855091 -3.122229 4.606518 1.502905 
1.046868 0.480596 1.038759 -12.606245 1.142598 93.159157 8.445800 9.894337 -16.014618 -3.650516 18.934108 14.652905 5.157612 15.669955 -6.401018 0.000000 -0.000000 0.000000 -17.550693 -15.539907 2.309213 -3.453707 -17.231026 27.505509 1.706890 -15.790253 -1.094015 0.000000 -0.000000 0.000000 -1.294828 5.047149 11.122714 1.851402 -2.830179 -5.170761 2.153859 -0.487591 -0.530530 4.942041 -5.522775 -7.219666 7.521226 -3.322679 6.492307 -24.030530 5.367901 2.510148 -49.103720 -5.862285 6.766208 2.482220 -49.965311 7.847543 12.436744 -7.647391 -15.410142 26.706226 -1.963658 1.344434 51.085361 -1.657213 15.438023 -5.710047 44.022563 4.341540 -1.418971 4.343423 2.548110 
1.036821 0.498516 1.037098 -15.903863 1.102526 93.329041 9.369436 11.249939 -16.371262 -3.241922 20.666012 14.659071 4.775176 15.527410 -5.221257 0.000000 -0.000000 0.000000 -17.928539 -16.693220 2.217795 -3.735797 -19.293175 25.596588 0.697351 -17.438992 0.771044 0.000000 -0.000000 0.000000 -1.443720 5.226223 11.126960 1.605036 -2.649262 -5.197651 2.237076 -0.432530 -0.664038 4.817395 -6.350632 -7.185301 7.824026 -3.611657 7.281027 -24.098195 5.500993 2.898766 -49.477812 -6.184625 6.757311 1.074155 -49.775656 9.847189 12.339579 -7.817614 -15.252666 26.716463 -1.891052 1.643220 50.993704 -1.363372 15.430559 -5.132599 45.031093 4.788134 -2.540742 5.131394 2.917600 
